<svg xmlns="http://www.w3.org/2000/svg">
  <symbol id="icon-account-circle" viewBox="0 -960 960 960"><path d="M234-276q51-39 114-61.5T480-360q69 0 132 22.5T726-276q35-41 54.5-93T800-480q0-133-93.5-226.5T480-800q-133 0-226.5 93.5T160-480q0 59 19.5 111t54.5 93zm246-164q-59 0-99.5-40.5T340-580q0-59 40.5-99.5T480-720q59 0 99.5 40.5T620-580q0 59-40.5 99.5T480-440zm0 360q-83 0-156-31.5T197-197q-54-54-85.5-127T80-480q0-83 31.5-156T197-763q54-54 127-85.5T480-880q83 0 156 31.5T763-763q54 54 85.5 127T880-480q0 83-31.5 156T763-197q-54 54-127 85.5T480-80zm0-80q53 0 100-15.5t86-44.5q-39-29-86-44.5T480-280q-53 0-100 15.5T294-220q39 29 86 44.5T480-160zm0-360q26 0 43-17t17-43q0-26-17-43t-43-17q-26 0-43 17t-17 43q0 26 17 43t43 17zm0-60zm0 360z"/></symbol>
  <symbol id="icon-add-circle" viewBox="0 -960 960 960"><path d="M440-280h80v-160h160v-80H520v-160h-80v160H280v80h160v160zm40 200q-83 0-156-31.5T197-197q-54-54-85.5-127T80-480q0-83 31.5-156T197-763q54-54 127-85.5T480-880q83 0 156 31.5T763-763q54 54 85.5 127T880-480q0 83-31.5 156T763-197q-54 54-127 85.5T480-80zm0-80q134 0 227-93t93-227q0-134-93-227t-227-93q-134 0-227 93t-93 227q0 134 93 227t227 93zm0-320z"/></symbol>
  <symbol id="icon-arrow-back" viewBox="0 -960 960 960"><path d="M640-80L240-480l400-400 71 71-329 329 329 329-71 71z"/></symbol>
  <symbol id="icon-add-photo" viewBox="0 -960 960 960"><path d="M200-120q-33 0-56.5-23.5T120-200v-560q0-33 23.5-56.5T200-840h360v80H200v560h560v-360h80v360q0 33-23.5 56.5T760-120H200zm480-480v-80h-80v-80h80v-80h80v80h80v80h-80v80h-80zM240-280h480L570-480 450-320l-90-120-120 160zm-40-480v560-560z"/></symbol>
  <symbol id="icon-cancel" viewBox="0 -960 960 960"><path d="M336-280l144-144 144 144 56-56-144-144 144-144-56-56-144 144-144-144-56 56 144 144-144 144 56 56zM480-80q-83 0-156-31.5T197-197q-54-54-85.5-127T80-480q0-83 31.5-156T197-763q54-54 127-85.5T480-880q83 0 156 31.5T763-763q54 54 85.5 127T880-480q0 83-31.5 156T763-197q-54 54-127 85.5T480-80zm0-80q134 0 227-93t93-227q0-134-93-227t-227-93q-134 0-227 93t-93 227q0 134 93 227t227 93zm0-320z"/></symbol>
  <symbol id="icon-close" viewBox="0 -960 960 960"><path d="M256-200l-56-56 224-224-224-224 56-56 224 224 224-224 56 56-224 224 224 224-56 56-224-224-224 224z"/></symbol>
  <symbol id="icon-forum" viewBox="0 -960 960 960"><path d="M280-240q-17 0-28.5-11.5T240-280v-80h520v-360h80q17 0 28.5 11.5T880-680v600L720-240H280zM80-280v-560q0-17 11.5-28.5T120-880h520q17 0 28.5 11.5T680-840v360q0 17-11.5 28.5T640-440H240L80-280zm520-240v-280H160v280h440zm-440 0v-280 280z"/></symbol>
  <symbol id="icon-favorite" viewBox="0 -960 960 960"><path d="M480-120l-58-52q-101-91-167-157T150-447.5Q111-500 95.5-544T80-634q0-94 63-157t157-63q52 0 99 22t81 62q34-40 81-62t99-22q94 0 157 63t63 157q0 46-15.5 90T810-447.5Q771-395 705-329T538-172l-58 52zm0-108q96-86 158-147.5t98-107q36-45.5 50-81t14-70.5q0-60-40-100t-100-40q-47 0-87 26.5T518-680h-76q-15-41-55-67.5T300-774q-60 0-100 40t-40 100q0 35 14 70.5t50 81q36 45.5 98 107T480-228zm0-273z"/></symbol>
  <symbol id="icon-favorite-filled" viewBox="0 0 24 24"><path d="M0 0h24v24H0z" fill="none"/><path d="M12 21.35l-1.45-1.32C5.4 15.36 2 12.28 2 8.5 2 5.42 4.42 3 7.5 3c1.74 0 3.41.81 4.5 2.09C13.09 3.81 14.76 3 16.5 3 19.58 3 22 5.42 22 8.5c0 3.78-3.4 6.86-8.55 11.54L12 21.35z"/></symbol>
  <symbol id="icon-edit" viewBox="0 -960 960 960"><path d="M200-200h57l391-391-57-57-391 391v57zm-80 80v-170l528-527q12-11 26.5-17t30.5-6q16 0 31 6t26 18l55 56q12 11 17.5 26t5.5 30q0 16-5.5 30.5T817-647L290-120H120zm640-584l-56-56 56 56zm-141 85l-28-29 57 57-29-28z"/></symbol>
  <symbol id="icon-home" viewBox="0 -960 960 960"><path d="M240-200h120v-240h240v240h120v-360L480-740 240-560v360zm-80 80v-480l320-240 320 240v480H520v-240h-80v240H160zm320-350z"/></symbol>
  <symbol id="icon-sms" viewBox="0 -960 960 960"><path d="M320-520q17 0 28.5-11.5T360-560q0-17-11.5-28.5T320-600q-17 0-28.5 11.5T280-560q0 17 11.5 28.5T320-520zm160 0q17 0 28.5-11.5T520-560q0-17-11.5-28.5T480-600q-17 0-28.5 11.5T440-560q0 17 11.5 28.5T480-520zm160 0q17 0 28.5-11.5T680-560q0-17-11.5-28.5T640-600q-17 0-28.5 11.5T600-560q0 17 11.5 28.5T640-520zM80-80v-720q0-33 23.5-56.5T160-880h640q33 0 56.5 23.5T880-800v480q0 33-23.5 56.5T800-240H240L80-80zm126-240h594v-480H160v525l46-45zm-46 0v-480 480z"/></symbol>
  <symbol id="icon-notifications" viewBox="0 -960 960 960"><path d="M160-200v-80h80v-280q0-83 50-147.5T420-792v-28q0-25 17.5-42.5T480-880q25 0 42.5 17.5T540-820v28q80 20 130 84.5T720-560v280h80v80H160zm320-300zm0 420q-33 0-56.5-23.5T400-160h160q0 33-23.5 56.5T480-80zM320-280h320v-280q0-66-47-113t-113-47q-66 0-113 47t-47 113v280z"/></symbol>
  <symbol id="icon-search" viewBox="0 -960 960 960"><path d="M784-120L532-372q-30 24-69 38t-83 14q-109 0-184.5-75.5T120-580q0-109 75.5-184.5T380-840q109 0 184.5 75.5T640-580q0 44-14 83t-38 69l252 252-56 56zM380-400q75 0 127.5-52.5T560-580q0-75-52.5-127.5T380-760q-75 0-127.5 52.5T200-580q0 75 52.5 127.5T380-400z"/></symbol>
  <symbol id="icon-send" viewBox="0 -960 960 960"><path d="M120-160v-640l760 320-760 320zm80-120l474-200-474-200v140l240 60-240 60v140zm0 0v-400 400z"/></symbol>
  <symbol id="icon-more-vert" viewBox="0 -960 960 960"><path d="M480-160q-33 0-56.5-23.5T400-240q0-33 23.5-56.5T480-320q33 0 56.5 23.5T560-240q0 33-23.5 56.5T480-160zm0-240q-33 0-56.5-23.5T400-480q0-33 23.5-56.5T480-560q33 0 56.5 23.5T560-480q0 33-23.5 56.5T480-400zm0-240q-33 0-56.5-23.5T400-720q0-33 23.5-56.5T480-800q33 0 56.5 23.5T560-720q0 33-23.5 56.5T480-640z"/></symbol>
  
<symbol id="icon-chevron-left" viewBox="0 -960 960 960"><path d="M560-240 320-480l240-240 56 56-184 184 184 184-56 56Z"/></symbol>
<symbol id="icon-chevron-right" viewBox="0 -960 960 960"><path d="M504-480 320-664l56-56 240 240-240 240-56-56 184-184Z"/></symbol>
</svg>